<svg width="567" height="60" viewBox="0 0 567 60" xmlns="http://www.w3.org/2000/svg" xmlns:xlink="http://www.w3.org/1999/xlink" fill="#000"><path d="M535.875 14.475v9.507c0 .458.227.686.686.686h7.8c1.83 0 3.314-.5 4.458-1.5 1.143-.998 1.714-2.297 1.714-3.897 0-1.655-.571-2.983-1.714-3.982-1.144-.999-2.629-1.499-4.457-1.499h-7.801c-.459 0-.686.228-.686.685zm13.888 44.281l-9.259-21.326c-.115-.343-.4-.515-.857-.515h-3.086c-.459 0-.686.23-.686.685V58.33c0 1.085-.544 1.627-1.63 1.627h-12.858c-1.086 0-1.628-.542-1.628-1.627V1.627c0-1.083.542-1.627 1.628-1.627h25.631c3.887 0 7.301.8 10.246 2.398 2.942 1.6 5.228 3.841 6.857 6.724 1.63 2.884 2.444 6.21 2.444 9.978 0 3.712-.9 6.967-2.7 9.764-1.801 2.799-4.302 4.882-7.502 6.252-.4.173-.515.458-.343.858l10.458 22.097c.115.23.172.514.172.857 0 .685-.458 1.028-1.371 1.028h-13.631c-.914 0-1.542-.4-1.885-1.2zM471.919 13.79h-25.032c-.458 0-.686.228-.686.685v7.538c0 .456.228.685.686.685h20.086c1.085 0 1.628.543 1.628 1.627v10.45c0 1.084-.543 1.627-1.628 1.627h-20.086c-.458 0-.686.228-.686.685v8.394c0 .457.228.685.686.685h25.032c1.085 0 1.628.544 1.628 1.627v10.536c0 1.085-.543 1.627-1.628 1.627h-40.205c-1.086 0-1.628-.542-1.628-1.627V1.627c0-1.083.542-1.627 1.628-1.627h40.205c1.085 0 1.628.544 1.628 1.627v10.536c0 1.084-.543 1.627-1.628 1.627zM368.506 41.112c0-3.196-2.001-4.796-6.001-4.796h-7.63c-.458 0-.685.228-.685.685v8.48c0 .457.227.685.686.685h7.544c4.056 0 6.086-1.683 6.086-5.054zM354.19 14.475v8.051c0 .458.227.685.686.685h6.772c4.171 0 6.258-1.569 6.258-4.71 0-3.14-2.087-4.711-6.258-4.711h-6.772c-.459 0-.686.228-.686.685zm22.974 14.561c0 .17.113.314.343.427 2.4 1.428 4.185 3.242 5.358 5.44 1.17 2.198 1.757 4.839 1.757 7.923 0 5.882-2.058 10.206-6.172 12.976-4.115 2.77-9.46 4.154-16.03 4.154h-22.718c-1.086 0-1.628-.542-1.628-1.627V1.627c0-1.083.542-1.627 1.628-1.627h21.946c7.315 0 12.816 1.3 16.501 3.896 3.687 2.6 5.53 6.953 5.53 13.063 0 5.31-2.057 9.194-6.172 11.649-.23.115-.343.256-.343.428zM273.932 58.329V1.627c0-1.083.542-1.627 1.628-1.627h12.859c1.085 0 1.629.544 1.629 1.627v56.702c0 1.085-.544 1.627-1.63 1.627H275.56c-1.086 0-1.628-.542-1.628-1.627zm-85.813 0V1.627c0-1.083.542-1.627 1.628-1.627h12.859c1.085 0 1.63.544 1.63 1.627V45.48c0 .457.226.685.685.685h25.89c1.083 0 1.628.544 1.628 1.627v10.536c0 1.085-.545 1.627-1.629 1.627h-41.063c-1.086 0-1.628-.542-1.628-1.627zm-75.673-19.443c0 .4.199.599.6.599h10.63c.227 0 .4-.07.515-.214.113-.142.14-.328.085-.557L118.79 18.93c-.058-.286-.187-.428-.386-.428-.201 0-.358.142-.471.428l-5.487 19.785v.172zm17.316 19.7l-1.714-6.168c-.116-.398-.373-.6-.772-.6h-17.83c-.4 0-.658.202-.772.6l-1.714 6.167c-.23.914-.83 1.371-1.8 1.371H91.27c-.57 0-.985-.172-1.242-.514-.257-.343-.3-.799-.129-1.371l17.83-56.7c.287-.913.887-1.371 1.8-1.371h17.66c.915 0 1.514.458 1.8 1.37l17.832 56.7c.055.173.085.373.085.601 0 .856-.486 1.285-1.456 1.285h-13.889c-.972 0-1.573-.457-1.8-1.37zM0 58.328V1.627C0 .544.542 0 1.628 0h12.858c1.086 0 1.63.544 1.63 1.627v19.615c0 .286.099.458.3.513.2.058.386-.028.557-.257L31.46 1.028C31.917.343 32.574 0 33.432 0h14.574c.857 0 1.286.314 1.286.942 0 .4-.116.742-.343 1.027L31.632 26.123c-.228.343-.257.658-.086.942L49.72 57.986c.171.343.257.657.257.942 0 .685-.458 1.028-1.371 1.028H34.118c-.857 0-1.487-.371-1.886-1.114L20.659 38.285c-.115-.227-.272-.342-.471-.342-.202 0-.359.115-.472.342l-3.343 5.054c-.17.343-.257.63-.257.857V58.33c0 1.085-.544 1.627-1.63 1.627H1.628C.542 59.956 0 59.414 0 58.329z"></path></svg>
